<svg version="1.1" id="Layer_1" xmlns="http://www.w3.org/2000/svg" xmlns:xlink="http://www.w3.org/1999/xlink" x="0px" y="0px"
	 width="100%" viewBox="0 0 736 512" enable-background="new 0 0 736 512" xml:space="preserve">
<path fill="#000000" opacity="1.000000" stroke="none" 
	d="
M245.468658,513.000000 
	C243.778976,489.460297 249.178604,467.287476 260.064575,446.630463 
	C282.078400,404.857239 316.913147,379.983002 363.402649,373.129486 
	C403.970123,367.149017 440.669312,377.864563 472.269043,404.447968 
	C499.159851,427.069885 514.789307,456.107086 520.051697,490.691040 
	C521.119141,497.706238 522.041931,504.887360 521.087158,512.539551 
	C429.312439,513.000000 337.624878,513.000000 245.468658,513.000000 
z"/>
<path fill="#000000" opacity="1.000000" stroke="none" 
	d="
M429.000122,3.625494 
	C461.917816,3.625463 494.335541,3.625463 526.573364,3.625463 
	C527.150269,5.874386 525.971863,6.538754 525.150085,7.232229 
	C493.721527,33.754993 464.525635,62.848392 432.134979,88.253349 
	C415.127106,101.593193 398.675781,115.760155 379.254456,125.714584 
	C376.139557,127.311134 374.323792,130.146225 372.758392,133.102982 
	C369.882172,138.535690 365.749023,142.909851 360.805359,146.339111 
	C347.549591,155.534271 334.334106,164.968369 318.823242,170.081238 
	C288.764343,179.989578 264.653656,199.241455 240.415710,218.589508 
	C214.032135,239.650330 188.217743,261.488007 159.972076,280.137115 
	C153.022339,284.725677 148.881699,291.990540 143.767838,298.287476 
	C134.210953,310.055298 125.561317,322.499969 116.869896,334.913727 
	C113.634598,339.534698 112.417160,343.484039 116.047325,348.868744 
	C120.694557,355.762085 119.270378,359.873688 112.458244,364.784454 
	C97.200821,375.783264 80.995972,385.989838 69.405518,400.956726 
	C59.528141,413.711517 50.397293,427.420990 51.212585,445.101593 
	C51.650482,454.597931 46.326324,461.493195 38.361843,466.104706 
	C34.743668,468.199707 30.639284,468.149414 27.106867,465.321991 
	C18.920614,458.769440 14.947749,449.804291 14.630329,439.724915 
	C14.037016,420.884857 16.937790,402.208344 19.343149,383.597931 
	C20.819744,372.173401 23.824141,360.886963 27.159975,349.756012 
	C29.106699,343.260254 30.809866,336.543640 31.340748,329.825104 
	C31.677210,325.567017 29.490932,321.151428 28.722527,316.756409 
	C26.381699,303.367584 27.291149,290.643311 38.465973,281.105103 
	C44.629765,275.844055 52.809223,274.743134 60.426022,274.121155 
	C69.016907,273.419617 77.504524,271.091492 86.237915,272.017365 
	C89.357033,272.347961 90.820107,269.825378 92.618980,267.859192 
	C113.567047,244.962860 131.379257,219.602875 150.280533,195.083664 
	C162.092239,179.761200 176.905594,167.132141 191.506348,154.467850 
	C204.075394,143.565796 216.241333,132.027054 231.220169,124.383446 
	C247.943604,115.849571 264.898956,107.768578 281.785675,99.556877 
	C292.179779,94.502426 301.562347,87.893990 310.694916,80.911232 
	C318.159119,75.204079 322.271240,66.836227 327.409943,59.294544 
	C338.747467,42.655354 350.157257,26.064398 361.352448,9.329895 
	C364.262329,4.980210 367.789429,3.442285 373.013306,3.522430 
	C391.505066,3.806131 410.003937,3.628380 429.000122,3.625494 
z"/>
<path fill="#000000" opacity="1.000000" stroke="none" 
	d="
M732.283813,132.398804 
	C731.541016,136.058182 728.756165,137.599991 726.619812,139.616302 
	C705.661011,159.397614 684.876648,179.347137 666.893066,201.970184 
	C662.224609,207.843018 658.135376,214.123032 654.918640,220.934525 
	C652.808594,225.402710 652.385742,229.718948 655.146362,234.216919 
	C658.377441,239.481461 659.348694,245.216217 658.581177,251.470139 
	C657.033142,264.085266 660.357605,275.904480 665.544861,287.256012 
	C666.862366,290.139313 669.146851,292.300415 671.739929,294.290588 
	C683.744690,303.504028 695.876160,312.570831 707.179626,322.660156 
	C710.321167,325.464233 712.560547,328.945007 714.433960,332.719177 
	C718.296204,340.500092 715.014343,347.174377 706.316895,348.474579 
	C698.853271,349.590363 691.317688,348.484131 683.902466,347.963501 
	C671.470032,347.090576 659.166626,344.976562 647.789917,339.181702 
	C640.910522,335.677551 636.138000,329.813690 630.712952,324.725037 
	C620.234924,314.896790 609.479004,305.417358 596.844360,298.507446 
	C588.988708,294.211212 580.366394,291.440735 572.726868,286.542603 
	C566.796936,282.740601 561.278687,278.536438 556.272400,273.635315 
	C549.972778,267.467987 545.446228,255.274521 552.999573,245.105103 
	C556.761108,240.040817 559.769287,234.423935 563.290466,229.172562 
	C568.243958,221.785156 573.541382,214.751785 582.876892,212.392639 
	C583.904175,212.133026 584.826416,211.120544 585.609253,210.281677 
	C596.395813,198.723251 608.516602,188.475739 618.409851,176.014557 
	C626.278809,166.103058 631.342651,154.710175 637.104736,143.659500 
	C651.633545,115.795555 665.609192,87.632408 681.572632,60.541077 
	C688.737305,48.381973 696.571899,36.648457 705.726196,25.834476 
	C705.264709,25.221146 705.047058,24.598404 704.682373,24.495300 
	C689.854492,20.302401 674.818970,16.783747 659.624756,21.687963 
	C655.541016,23.006042 653.395630,22.300356 649.735840,20.896978 
	C644.827393,19.014799 638.923828,19.403719 633.446167,19.390205 
	C616.591675,19.348618 599.846741,17.863070 583.312561,14.863987 
	C572.277039,12.862295 561.090759,10.775372 550.779297,4.914175 
	C552.425110,3.125711 554.333679,3.662436 555.995850,3.661635 
	C612.823608,3.634260 669.651428,3.689831 726.478882,3.564052 
	C731.021423,3.553998 732.455017,4.876575 732.436462,9.478339 
	C732.271729,50.306629 732.326355,91.135796 732.283813,132.398804 
z"/>
<path fill="#000000" opacity="1.000000" stroke="none" 
	d="
M109.020126,483.289490 
	C99.770538,482.588562 90.988663,481.905060 82.207581,481.211609 
	C79.722160,481.015381 77.338806,480.541351 77.773392,477.230530 
	C79.108406,467.059937 80.535469,456.901428 81.986198,446.304016 
	C90.050026,446.687744 97.439690,448.611542 104.871475,449.947235 
	C144.436981,457.058319 183.962692,464.390900 223.502182,471.646759 
	C229.463867,472.740753 229.814209,473.274292 228.825531,479.168701 
	C228.303665,482.279938 227.717270,485.399841 227.509888,488.538940 
	C227.297775,491.749481 225.610321,492.278656 222.849167,492.053101 
	C195.511063,489.819855 168.170135,487.619476 140.824615,485.478882 
	C130.386307,484.661774 119.934044,484.023102 109.020126,483.289490 
z"/>
<path fill="#000000" opacity="1.000000" stroke="none" 
	d="
M662.885071,456.695007 
	C672.164185,455.170135 681.022827,453.760162 689.842468,452.137878 
	C692.822449,451.589722 694.078430,452.332916 694.399170,455.483124 
	C695.054077,461.917480 695.890747,468.345795 696.995117,474.717224 
	C697.650513,478.498596 696.059875,479.136200 692.754150,479.426086 
	C667.093140,481.676483 641.449097,484.118927 615.798584,486.489044 
	C590.641846,488.813599 565.483826,491.125275 540.325256,493.429749 
	C539.503784,493.505005 538.669312,493.439331 537.604126,493.439331 
	C534.967468,489.368378 535.962585,484.504669 535.127319,480.035309 
	C534.681824,477.651428 537.060730,477.777618 538.614319,477.510132 
	C551.870789,475.227692 565.127441,472.946228 578.394592,470.726807 
	C606.409485,466.040222 634.430725,461.391296 662.885071,456.695007 
z"/>
<path fill="#000000" opacity="1.000000" stroke="none" 
	d="
M460.450317,261.582703 
	C464.673431,245.981079 468.782166,230.773346 473.018677,215.092636 
	C482.179413,217.574341 490.755920,219.848328 499.379578,223.421646 
	C495.150177,235.576752 491.066833,247.335220 486.967834,259.088257 
	C474.148346,295.845520 461.241364,332.572723 448.602234,369.391907 
	C447.011230,374.026794 445.387360,375.320465 440.470093,373.625671 
	C429.996948,370.016174 430.821564,371.620605 433.631378,361.180664 
	C442.531433,328.112244 451.434204,295.044586 460.450317,261.582703 
z"/>
<path fill="#000000" opacity="1.000000" stroke="none" 
	d="
M369.726257,209.980591 
	C369.543823,196.658112 369.543823,196.658112 382.490540,196.660172 
	C396.531799,196.662415 396.667236,196.666718 396.228027,210.482773 
	C395.265656,240.757050 394.157288,271.026672 393.097809,301.297852 
	C392.504089,318.262268 391.744263,335.222778 391.376953,352.191956 
	C391.275024,356.901093 389.813599,358.627075 384.981812,358.457581 
	C373.694763,358.061707 375.070770,359.554901 374.677612,348.184875 
	C373.429474,312.092041 372.097076,276.002106 370.797119,239.911072 
	C370.443695,230.098801 370.089813,220.286530 369.726257,209.980591 
z"/>
<path fill="#000000" opacity="1.000000" stroke="none" 
	d="
M609.121948,397.170227 
	C583.541992,413.477966 558.220154,429.520691 533.058289,445.810516 
	C529.086792,448.381683 527.084839,448.116608 524.455261,444.063293 
	C518.349548,434.651825 518.146057,434.810394 526.996460,427.867035 
	C557.655457,403.814453 588.302368,379.746277 618.961975,355.694458 
	C620.378418,354.583282 621.873779,353.572632 623.823853,352.158752 
	C629.577209,360.302887 635.107727,368.131653 641.171936,376.715790 
	C630.315491,383.649506 619.874207,390.318115 609.121948,397.170227 
z"/>
<path fill="#000000" opacity="1.000000" stroke="none" 
	d="
M319.165833,374.420593 
	C317.429108,373.449585 317.174713,371.917847 316.687805,370.530304 
	C301.770905,328.021881 286.855896,285.512726 271.955963,242.998367 
	C269.716492,236.608444 269.752625,236.600403 276.223358,234.601669 
	C280.510956,233.277283 284.932587,232.265045 289.043121,230.521179 
	C293.808411,228.499542 295.356934,230.258072 296.516907,234.777313 
	C301.427765,253.910202 306.643768,272.964905 311.767761,292.042938 
	C318.142029,315.776031 324.528595,339.505859 330.924683,363.233093 
	C332.964844,370.801300 332.994415,370.821930 325.334137,373.129669 
	C323.434235,373.702057 321.464478,374.042664 319.165833,374.420593 
z"/>
<path fill="#000000" opacity="1.000000" stroke="none" 
	d="
M204.779053,402.191772 
	C217.245041,411.961792 229.354813,421.612396 241.671188,430.991669 
	C245.072495,433.581818 245.449417,435.577881 242.885269,439.069366 
	C236.801514,447.353333 236.924957,447.522766 227.901520,441.789917 
	C198.538162,423.134552 169.237671,404.379822 139.811600,385.824127 
	C136.012756,383.428650 134.986252,381.495270 138.048706,377.720612 
	C141.502182,373.464020 144.645844,368.921448 147.565506,364.277679 
	C149.793716,360.733704 151.686447,360.488068 154.993423,363.120178 
	C171.405792,376.183258 187.982193,389.040283 204.779053,402.191772 
z"/>
<path fill="#000000" opacity="1.000000" stroke="none" 
	d="
M234.509125,360.484985 
	C220.164734,344.758942 206.061417,329.289642 191.511688,313.330688 
	C197.972076,307.935425 204.014740,302.889008 210.486908,297.483917 
	C215.649460,304.183167 220.412582,310.341095 225.151443,316.517609 
	C243.480515,340.407257 261.723785,364.363556 280.206543,388.133667 
	C283.132629,391.896820 282.484161,393.863953 278.971802,396.501831 
	C272.132111,401.638672 272.233276,401.824951 266.363434,395.406494 
	C255.809555,383.866302 245.286270,372.298157 234.509125,360.484985 
z"/>
<path fill="#000000" opacity="1.000000" stroke="none" 
	d="
M568.329468,317.412933 
	C544.744995,343.264526 521.365051,368.836426 498.067841,394.483459 
	C491.077484,402.178864 491.281738,402.163330 483.476135,395.257172 
	C480.818878,392.906158 481.004517,391.207855 483.002869,388.641388 
	C492.521118,376.417145 501.914185,364.095276 511.331543,351.792633 
	C523.685181,335.654083 536.015076,319.497345 548.369141,303.359100 
	C549.768494,301.531158 551.258240,299.772400 553.216492,297.350220 
	C559.229004,302.375671 565.092712,306.940430 570.527222,311.969147 
	C573.028015,314.283264 569.559875,315.524323 568.329468,317.412933 
z"/>
</svg>